<svg xmlns:rdf="http://www.w3.org/1999/02/22-rdf-syntax-ns#" xmlns="http://www.w3.org/2000/svg" xmlns:cc="http://creativecommons.org/ns#" xmlns:dc="http://purl.org/dc/elements/1.1/" viewBox="0 0 100 125" version="1.1" x="0px" y="0px"><path style="color-rendering:auto;text-decoration-color:#000000;color:#000000;isolation:auto;mix-blend-mode:normal;shape-rendering:auto;solid-color:#000000;block-progression:tb;text-decoration-line:none;text-decoration-style:solid;image-rendering:auto;white-space:normal;text-indent:0;text-transform:none;" d="m50.532 5.0038c-6.989-0.0681-14.105 0.709-19.727 2.5109-2.4162 0.77439-4.3266 2.1836-5.4571 4.0938-1.1304 1.9102-1.4609 4.3052-0.80135 6.9648 0.97957 3.95 2.3721 7.3767 4.0562 10.503 0.28628 0.53138 0.59608 1.0209 0.96953 1.4147 0.37345 0.39381 0.82993 0.70302 1.3791 0.77167 12.158 1.5198 26.774 1.2771 38.158-0.20182 0.73531-0.09553 1.5179-0.71144 2.2537-2.2022 1.745-3.5356 3.1715-7.3184 4.2521-11.801 0.931-3.861-1.944-8.2107-6.11-9.4949-5.12-1.5782-11.984-2.4923-18.973-2.5603zm-0.0079 1.0764c6.9091 0.067039 13.698 0.95383 18.672 2.4871 3.6482 1.1245 6.1655 5.0601 5.3977 8.245-1.0628 4.4083-2.4588 8.108-4.1729 11.581-0.65628 1.3297-1.2094 1.5957-1.4464 1.6264-11.284 1.4659-25.852 1.705-37.893 0.19984-0.23416-0.02927-0.47803-0.16652-0.74792-0.45113-0.2699-0.28461-0.54507-0.70444-0.80728-1.1911-1.6467-3.0565-3.0014-6.395-3.9592-10.257-0.60518-2.4403-0.29709-4.5184 0.68461-6.1773s2.655-2.9158 4.8734-3.6268c5.4581-1.7493 12.489-2.5027 19.398-2.4357z"/><path d="m70.037 31.408c-15.368 1.9196-27.355 2.0313-40.224 0.15778 6.1332 19.914 6.0563 28.956 6.198 38.384 0.22696 0.21591 0.22968 0.40712 0.77187 0.5842 0.05845 0.34949 0.15834 0.84665 0.35606 1.1492 0.13395 0.20497 0.41421 0.40133 0.61831 0.53516 0.05717 0.37345 0.14901 0.85622 0.31982 1.1556 0.18111 0.31744 0.76969 0.71852 0.76969 0.71852 7.0823 1.111 14.61 0.74556 21.692 0.11087 0 0 0.72224-0.50129 0.96372-0.8827 0.16048-0.25348 0.3052-0.69344 0.40937-1.0703 0.25316-0.17209 0.55898-0.39749 0.72065-0.62044 0.19033-0.26246 0.34768-0.69982 0.46267-1.0767 0.3559-0.13744 0.64415-0.28467 0.79741-0.44561-0.444-12.818 2.909-26.019 6.144-38.7z"/><path d="m61.007 72.627-21.692 1.0328v6.203l2.2062 2.2042v6.6858h-1.8263v1.8263h1.8263v1.205c0.16695 0.38831 0.16365 0.79785 1.7471 1.0091 0.12828 0.624 0.41084 1.188 1.4484 1.4484 3.6165 0.92023 7.5694 1.098 12.103 0 1.0881-0.61198 1.2867-1.2242 1.3791-1.8362 1.1806-0.31224 0.98894-0.73932 1.1357-1.1377v-0.68856h1.8619v-1.8263h-1.8619v-6.8916l1.6719-1.6719v-7.5623z"/></svg>