<?xml version="1.0"?>
<svg xmlns="http://www.w3.org/2000/svg" id="Layer_1" data-name="Layer 1" viewBox="0 0 512 512" width="512" height="512"><title>Settings</title><path d="M301.95,287a143.254,143.254,0,0,0,3.35-30c.01-.33.01-.67.01-1A143.505,143.505,0,0,0,256,147.66a143.66,143.66,0,1,1,0,216.68A143.856,143.856,0,0,0,286.56,327,142.418,142.418,0,0,0,301.95,287Z" style="fill:#00acea"/><path d="M305.31,256c0,.33,0,.67-.01,1H206.7c-.01-.33-.01-.67-.01-1a143.752,143.752,0,0,1,5.36-39h87.9A143.752,143.752,0,0,1,305.31,256Z" style="fill:#00efd1"/><path d="M305,257h.3a143.254,143.254,0,0,1-3.35,30h-91.9a143.254,143.254,0,0,1-3.35-30H305Z" style="fill:#fedb41"/><path d="M210.05,287h91.9a142.418,142.418,0,0,1-15.39,40H225.44A142.418,142.418,0,0,1,210.05,287Z" style="fill:#00efd1"/><path d="M299.95,217h-87.9a142.854,142.854,0,0,1,18.49-40.3l.46.3h50l.46-.3A142.854,142.854,0,0,1,299.95,217Z" style="fill:#fedb41"/><path d="M225.44,327h61.12A143.856,143.856,0,0,1,256,364.34,143.856,143.856,0,0,1,225.44,327Z" style="fill:#fedb41"/><path d="M281.46,176.7l-.46.3H231l-.46-.3A144.536,144.536,0,0,1,256,147.66,144.536,144.536,0,0,1,281.46,176.7Z" style="fill:#00efd1"/><path d="M225.44,327A143.856,143.856,0,0,0,256,364.34a143.66,143.66,0,1,1,0-216.68,144.536,144.536,0,0,0-25.46,29.04A143.082,143.082,0,0,0,206.69,256c0,.33,0,.67.01,1a143.045,143.045,0,0,0,18.74,70Z" style="fill:#f4b844"/></svg>
