<svg height="512pt" viewBox="0 0 512 512" width="512pt" xmlns="http://www.w3.org/2000/svg"><path d="m256 152c-90.980469 0-165 74.019531-165 165v15h330v-15c0-90.980469-74.019531-165-165-165zm0 0"/><path d="m0 0v30h241v60h-25.800781l-12.601563 39.5c16.804688-4.800781 34.800782-7.5 53.402344-7.5s36.597656 2.699219 53.402344 7.5l-12.601563-39.5h-25.800781v-60h241v-30zm0 0"/><path d="m161.5 362c16.5 35.398438 52.800781 60 94.5 60s78-24.601562 94.5-60zm0 0"/><path d="m241 452h30v60h-30zm0 0"/><path d="m374.492188 456.707031-33.632813-33.632812 21.210937-21.210938 33.632813 33.632813zm0 0"/><path d="m137.507812 456.707031-21.210937-21.210937 33.632813-33.632813 21.210937 21.210938zm0 0"/></svg>