<svg version="1.1" xmlns="http://www.w3.org/2000/svg" xmlns:xlink="http://www.w3.org/1999/xlink" x="0px" y="0px" viewBox="0 0 1000 1000" enable-background="new 0 0 1000 1000" xml:space="preserve">
<g><g transform="translate(0.000000,511.000000) scale(0.100000,-0.100000)"><path d="M4182.9,943.2C799.4-2440.3,112.3-3137.1,102.6-3189.2c-13.5-63.7-3.9-73.3,760.5-837.7c764.3-764.3,774-774,837.7-760.4c52.1,9.6,748.9,696.8,4132.4,4080.3C9685.8,3145.5,9900,3363.6,9900,3427.3c0,61.8-50.2,117.7-758.5,824.2C8435,4959.8,8379.1,5010,8317.3,5010C8253.6,5010,8035.5,4795.7,4182.9,943.2z M8915.6,4016l588.7-588.7l-121.6-119.7L9263.1,3186l-592.5,592.6L8076,4373.1l115.8,115.8c63.7,63.7,119.7,115.8,125.5,115.8S8591.4,4340.2,8915.6,4016z M5595.8-481.2L2160.2-3916.9l-592.6,594.5l-594.5,592.6L4408.8,705.8l3435.6,3435.6l592.5-592.6l594.5-594.5L5595.8-481.2z M1803.1-4273.9l-125.5-125.4l-592.6,592.6l-594.5,594.5l125.5,125.4l125.5,125.5l592.6-592.6l594.5-594.5L1803.1-4273.9z"/><path d="M7728.6,3533.4c-98.4-96.5-32.8-260.6,104.2-260.6c137,0,208.4,110,148.6,227.8C7931.3,3597.1,7805.8,3612.6,7728.6,3533.4z"/><path d="M7304,3099.2c-61.8-23.2-90.7-69.5-92.6-146.7c-3.9-140.9,167.9-214.2,266.3-113.9c79.1,77.2,63.7,202.7-30.9,250.9C7387,3122.3,7360,3124.3,7304,3099.2z"/><path d="M8244,3099.2c-52.1-21.2-98.4-119.7-84.9-185.3c11.6-61.8,92.6-123.5,162.1-123.5c73.3,0,150.5,77.2,150.5,152.5c0,83-17.4,115.8-79.1,146.7C8330.8,3122.3,8307.6,3124.3,8244,3099.2z"/><path d="M6782.8,2587.7c-137-135.1,46.3-341.6,210.4-235.5c61.7,40.5,81.1,129.3,42.5,202.7C6985.5,2651.4,6860,2666.8,6782.8,2587.7z"/><path d="M7728.6,2587.7c-100.4-98.4-29-264.4,111.9-264.4c129.3,0,200.7,117.7,140.9,231.6C7931.3,2651.4,7805.8,2666.8,7728.6,2587.7z"/><path d="M6348.6,2147.6c-104.2-52.1-117.7-191.1-25.1-264.4c106.2-83,256.7-11.6,256.7,119.7c-1.9,77.2-32.8,123.5-104.2,150.5C6410.3,2178.5,6408.4,2176.6,6348.6,2147.6z"/><path d="M7304,2153.4c-61.8-23.2-90.7-69.5-92.6-146.7c-3.9-140.9,167.9-214.2,266.3-113.9c84.9,83,57.9,220-50.2,258.6C7356.1,2176.6,7356.1,2176.6,7304,2153.4z"/><path d="M5837.1,1641.9c-121.6-119.7,11.6-322.3,171.8-260.6c67.6,25.1,115.8,133.2,90.7,200.7C6057.1,1692.1,5918.1,1724.9,5837.1,1641.9z"/><path d="M6782.8,1641.9c-61.8-59.8-61.8-144.8-1.9-214.2c84.9-100.4,243.2-57.9,272.1,69.5C7087.8,1651.6,6894.8,1755.8,6782.8,1641.9z"/><path d="M5431.7,1213.4c-131.2-30.9-160.2-204.6-50.2-289.5c52.1-40.5,152.5-29,204.6,23.2C5698.1,1057.1,5586.2,1250.1,5431.7,1213.4z"/><path d="M6377.5,1211.5c-90.7-19.3-140.9-115.8-106.2-208.5c44.4-111.9,177.6-140.9,260.6-56C6647.7,1060.9,6539.7,1244.3,6377.5,1211.5z"/><path d="M4891.3,696.2c-79.1-77.2-63.7-202.7,32.8-252.9c117.7-59.8,227.8,11.6,227.8,148.6C5151.9,729,4987.8,794.6,4891.3,696.2z"/><path d="M5837.1,696.2c-113.9-111.9-9.6-305,144.8-270.2c127.4,29,169.9,187.2,69.5,272.1C5981.8,757.9,5896.9,757.9,5837.1,696.2z"/><path d="M4424.2,232.9c-81.1-57.9-65.6-233.5,23.2-268.3c167.9-63.7,308.8,110,200.7,247.1C4601.8,269.6,4493.7,281.2,4424.2,232.9z"/><path d="M5370,232.9c-81.1-57.9-65.6-233.5,23.2-268.3c167.9-63.7,308.8,110,200.7,247.1C5547.6,269.6,5439.5,281.2,5370,232.9z"/><path d="M3945.5-249.6c-59.8-57.9-63.7-160.2-11.6-223.9c27-34.8,56-46.3,117.7-46.3c102.3,0,154.4,57.9,154.4,164.1C4206.1-216.8,4042.1-151.2,3945.5-249.6z"/><path d="M4926-220.7c-71.4-28.9-104.2-133.2-71.4-222c19.3-48.3,119.7-90.7,183.4-77.2c71.4,15.4,113.9,77.2,113.9,166C5151.9-236.1,5043.8-174.3,4926-220.7z"/><path d="M3463-732.1c-100.4-98.4-28.9-260.6,115.8-260.6c88.8,0,164.1,69.5,164.1,154.4s-75.3,154.4-164.1,154.4C3530.6-683.9,3493.9-699.3,3463-732.1z"/><path d="M4416.5-720.6c-34.7-27-46.3-56-46.3-117.7c0-61.8,11.6-90.7,46.3-117.7c104.2-84.9,272.1-11.6,272.1,117.7S4520.7-635.6,4416.5-720.6z"/><path d="M3032.6-1166.4c-61.8-27-100.4-127.4-77.2-196.9c59.8-171.8,305-131.3,305,48.3C3260.4-1195.4,3144.5-1120.1,3032.6-1166.4z"/><path d="M3980.3-1166.4c-144.8-59.8-86.9-308.8,71.4-308.8c127.4,0,202.7,167.9,121.6,268.3C4132.8-1160.6,4042.1-1139.4,3980.3-1166.4z"/><path d="M2517.2-1677.9c-98.4-96.5-32.8-260.6,106.2-260.6c106.2,0,164.1,52.1,164.1,154.4c0,61.8-11.6,90.7-46.3,117.7C2677.4-1614.2,2575.1-1618.1,2517.2-1677.9z"/><path d="M3463-1677.9c-100.4-98.4-28.9-260.6,115.8-260.6c88.8,0,164.1,69.5,164.1,154.4c0,84.9-75.3,154.4-164.1,154.4C3530.6-1629.6,3493.9-1645.1,3463-1677.9z"/><path d="M2083-2118c-104.2-52.1-117.7-191.1-25.1-264.4c137-106.2,308.8,36.7,245.1,202.7c-13.5,32.8-104.2,86.9-146.7,86.9C2142.8-2092.9,2110-2104.5,2083-2118z"/><path d="M3034.5-2112.2c-96.5-38.6-115.8-202.7-32.8-268.3c137-108.1,310.8,32.8,247.1,200.7c-13.5,32.8-106.2,86.9-146.7,84.9C3088.6-2094.8,3057.7-2102.5,3034.5-2112.2z"/><path d="M1571.5-2623.7c-83-81.1-50.2-220,59.8-262.5c67.6-25.1,175.6,23.1,202.7,92.7C1895.7-2631.4,1693.1-2500.1,1571.5-2623.7z"/><path d="M2517.2-2623.7c-83-81.1-50.2-220,59.8-262.5c67.6-25.1,175.6,23.1,202.7,92.7C2841.5-2629.5,2640.8-2498.2,2517.2-2623.7z"/><path d="M2081-3067.6c-106.2-57.9-113.9-198.8-13.5-268.3c102.3-71.4,247.1,0,247.1,123.5c0,84.9-28.9,127.4-98.4,152.5C2140.9-3034.8,2142.8-3034.8,2081-3067.6z"/></g></g>
</svg>