<svg id="Capa_1" enable-background="new 0 0 512 512" height="512" viewBox="0 0 512 512" width="512" xmlns="http://www.w3.org/2000/svg"><g><path d="m346 316c0 8.284-6.716 15-15 15s-15-6.716-15-15v-15h-75v70h180v-70h-75z"/><path d="m497 211h-196v-30h75c8.284 0 15-6.716 15-15v-151c0-8.284-6.716-15-15-15h-240c-8.284 0-15 6.716-15 15v151c0 8.284 6.716 15 15 15h75v30h-196c-8.284 0-15 6.716-15 15s6.716 15 15 15h16v256c0 8.284 6.716 15 15 15s15-6.716 15-15v-226h390v226c0 8.284 6.716 15 15 15s15-6.716 15-15c0-62.104 0-196.946 0-256h16c8.284 0 15-6.716 15-15s-6.716-15-15-15z"/><path d="m346 415.576c0 8.077-6.207 15.027-14.275 15.407-8.614.406-15.725-6.458-15.725-14.983v-15h-75v65c0 8.284 6.716 15 15 15h150c8.284 0 15-6.716 15-15v-65h-75z"/></g></svg>