<svg xmlns:rdf="http://www.w3.org/1999/02/22-rdf-syntax-ns#" xmlns="http://www.w3.org/2000/svg" xmlns:cc="http://creativecommons.org/ns#" xmlns:dc="http://purl.org/dc/elements/1.1/" viewBox="0 0 100 125" version="1.1" x="0px" y="0px"><path style="color-rendering:auto;text-decoration-color:#000000;color:#000000;isolation:auto;mix-blend-mode:normal;shape-rendering:auto;solid-color:#000000;block-progression:tb;text-decoration-line:none;text-decoration-style:solid;image-rendering:auto;white-space:normal;text-indent:0;text-transform:none;" d="m25.795 4.9998c-1.7762 0-3.2223 1.4461-3.2223 3.2223v83.556c0 1.7762 1.4461 3.2223 3.2223 3.2223h48.41c1.7762 0 3.2223-1.4461 3.2223-3.2223v-83.556c0-1.7762-1.4461-3.2223-3.2223-3.2223h-48.41zm0 1.0455h48.41c1.2151 0 2.1768 0.96174 2.1768 2.1768v83.556c0 1.2151-0.96174 2.1768-2.1768 2.1768h-48.41c-1.2151 0-2.1768-0.96174-2.1768-2.1768v-83.556c0-1.2151 0.96174-2.1768 2.1768-2.1768zm13.008 8.3948c-1.5075 0-2.7404 1.2329-2.7404 2.7404v66.989c0 1.5075 1.2329 2.7404 2.7404 2.7404h22.272c1.5075 0 2.7384-1.2331 2.7384-2.7404v-66.989c0-1.5073-1.2309-2.7404-2.7384-2.7404h-22.272zm0 0.26138h22.272c1.3651 0 2.477 1.1138 2.477 2.479v66.989c0 1.3652-1.1119 2.479-2.477 2.479h-22.272c-1.3651 0-2.479-1.1139-2.479-2.479v-66.989c0-1.3651 1.1139-2.479 2.479-2.479zm0 0.78414c-0.94375 0-1.6949 0.75114-1.6949 1.6949v66.989c0 0.94375 0.75114 1.6949 1.6949 1.6949h22.272c0.94375 0 1.6928-0.75134 1.6928-1.6949v-66.989c0-0.94355-0.74909-1.6949-1.6928-1.6949h-22.272zm0 0.26138h22.272c0.80655 0 1.4315 0.62675 1.4315 1.4335v19.969h-25.137v-19.969c0-0.80655 0.62695-1.4335 1.4335-1.4335zm11.131 7.8761a0.22135 0.22135 0 0 0 -0.02042 0.002 0.22135 0.22135 0 0 0 -0.19604 0.22258v1.9032a0.22135 0.22135 0 1 0 0.44108 0v-1.9032a0.22135 0.22135 0 0 0 -0.22462 -0.22462zm1.2007 0.74738a0.26141 0.26141 0 0 0 -0.15724 0.46558c0.48364 0.43166 0.64958 1.1137 0.41862 1.7194-0.23096 0.60572-0.80975 1.0046-1.458 1.0047-0.64826 0.000061-1.2269-0.399-1.458-1.0047-0.23108-0.60568-0.06495-1.2876 0.41862-1.7194a0.26141 0.26141 0 0 0 -0.18991 -0.45946 0.26141 0.26141 0 0 0 -0.15928 0.06943c-0.64405 0.57505-0.86524 1.4906-0.55747 2.2973 0.30777 0.80669 1.0826 1.3397 1.9461 1.3396 0.86341-0.000081 1.6384-0.53486 1.9461-1.3416 0.30762-0.80675 0.08464-1.7203-0.55952-2.2952a0.26141 0.26141 0 0 0 -0.18991 -0.07555zm-13.765 13.04h25.137v12.763h-25.137v-12.763zm12.467 3.9697v1.1333a1.2256 1.2256 0 0 1 0.10823 -0.0061 1.2256 1.2256 0 0 1 0.15315 0.01021v-1.1374h-0.26138zm-1.4335 0.59423-0.18378 0.18378 0.78822 0.78618a1.2256 1.2256 0 0 1 0.18582 -0.1797l-0.79027-0.79026zm3.1284 0-0.81069 0.81068a1.2256 1.2256 0 0 1 0.18583 0.18378l0.809-0.809-0.186-0.184zm-1.6173 0.98426a0.76467 0.76467 0 0 0 -0.71063 0.76372 0.76467 0.76467 0 0 0 0.76372 0.76372 0.76467 0.76467 0 0 0 0.76372 -0.76372 0.76467 0.76467 0 0 0 -0.76372 -0.76372 0.76467 0.76467 0 0 0 -0.05309 0zm-2.2891 0.63303v0.26138h1.1027a1.2256 1.2256 0 0 1 -0.0082 -0.12048 1.2256 1.2256 0 0 1 0.0082 -0.1409h-1.1027zm3.5368 0a1.2256 1.2256 0 0 1 0.01021 0.1409 1.2256 1.2256 0 0 1 -0.0061 0.12048h1.1435v-0.26138h-1.1476zm-0.24708 0.89237a1.2256 1.2256 0 0 1 -0.18174 0.18991l0.79843 0.79843 0.18582-0.18582-0.80252-0.80252zm-1.9175 0.0245-0.77801 0.77801 0.18378 0.18582 0.7821-0.7821a1.2256 1.2256 0 0 1 -0.18787 -0.18174zm1.1007 0.43904a1.2256 1.2256 0 0 1 -0.15315 0.01225 1.2256 1.2256 0 0 1 -0.10823 -0.0061v1.1109h0.26138v-1.117zm-12.728 5.4869h25.137v12.891h-25.137v-12.891zm12.509 4.9499v0.7678a0.83052 0.83052 0 0 1 0.07351 -0.0041 0.83052 0.83052 0 0 1 0.1021 0.0061v-0.76984h-0.17562zm-0.97201 0.40228-0.12456 0.12456 0.53501 0.53297a0.83052 0.83052 0 0 1 0.12456 -0.12252l-0.53501-0.53501zm2.1196 0-0.54931 0.5493a0.83052 0.83052 0 0 1 0.12661 0.12456l0.54931-0.54931-0.12661-0.12456zm-1.0966 0.66774a0.51816 0.51816 0 0 0 -0.47988 0.51663 0.51816 0.51816 0 0 0 0.51663 0.51868 0.51816 0.51816 0 0 0 0.51663 -0.51868 0.51816 0.51816 0 0 0 -0.51663 -0.51663 0.51816 0.51816 0 0 0 -0.03676 0zm-1.5499 0.42882v0.17562h0.74738a0.83052 0.83052 0 0 1 -0.0061 -0.07964 0.83052 0.83052 0 0 1 0.0061 -0.09598h-0.74738zm2.3953 0a0.83052 0.83052 0 0 1 0.0082 0.09393 0.83052 0.83052 0 0 1 -0.0041 0.08168h0.77393v-0.17562h-0.77801zm-0.16745 0.60444a0.83052 0.83052 0 0 1 -0.12252 0.12865l0.54114 0.54114 0.12661-0.12661-0.54522-0.54318zm-1.2987 0.01634-0.52684 0.52684 0.12456 0.12661 0.52889-0.53093a0.83052 0.83052 0 0 1 -0.12661 -0.12252zm0.74534 0.29814a0.83052 0.83052 0 0 1 -0.1021 0.0082 0.83052 0.83052 0 0 1 -0.07351 -0.0041v0.75147h0.17562v-0.75555zm-12.685 5.7851h25.137v20.582c0 0.80675-0.62491 1.4335-1.4315 1.4335h-22.272c-0.80655 0-1.4335-0.62695-1.4335-1.4335v-20.582zm15.309 7.8475-5.9668 5.9648 0.36961 0.36961 5.9668-5.9648-0.36961-0.36961zm-2.7445 0.97609a0.22135 0.22135 0 0 0 -0.02042 0.002 0.22135 0.22135 0 0 0 -0.19604 0.22258v1.3886l0.44108-0.44108v-0.9475a0.22135 0.22135 0 0 0 -0.22462 -0.22458zm-1.2252 0.75351a0.26141 0.26141 0 0 0 -0.15928 0.06943c-0.64405 0.57505-0.86524 1.4906-0.55747 2.2973 0.01971 0.05165 0.0562 0.09156 0.07964 0.1409l0.39411-0.39411c-0.196-0.58912-0.0336-1.2375 0.43291-1.654a0.26141 0.26141 0 0 0 -0.18991 -0.45946zm2.916 0.43291-0.36552 0.36552c0.25465 0.40713 0.31411 0.91543 0.13682 1.3804-0.23096 0.60572-0.80975 1.0046-1.458 1.0047-0.29861 0.000028-0.57899-0.09247-0.8209-0.243l-0.37982 0.37982c0.34426 0.24329 0.75994 0.38598 1.2007 0.38594 0.86341-0.000081 1.6384-0.53486 1.9461-1.3416 0.2503-0.65642 0.13398-1.3739-0.25934-1.9318z"/></svg>