<svg id="Capa_1" enable-background="new 0 0 512 512" height="512" viewBox="0 0 512 512" width="512" xmlns="http://www.w3.org/2000/svg"><g><path d="m437.02 74.98c-48.353-48.351-112.64-74.98-181.02-74.98-68.381 0-132.668 26.629-181.02 74.98-48.351 48.353-74.98 112.64-74.98 181.02s26.629 132.667 74.98 181.02c48.352 48.351 112.639 74.98 181.02 74.98 68.38 0 132.667-26.629 181.02-74.98 48.351-48.353 74.98-112.64 74.98-181.02s-26.629-132.667-74.98-181.02zm-181.02 407.02c-124.617 0-226-101.383-226-226s101.383-226 226-226 226 101.383 226 226-101.383 226-226 226z"/><path d="m264.363 334.548c-5.059-3.397-11.668-3.397-16.727 0-3.749 2.518-36.636 25.526-36.636 57.452s32.887 54.934 36.637 57.452c2.529 1.698 5.446 2.548 8.363 2.548s5.834-.85 8.363-2.548c3.75-2.518 36.637-25.526 36.637-57.452s-32.887-54.934-36.637-57.452zm-8.353 83.102c-6.9-6.534-15.01-16.365-15.01-25.65 0-9.222 7.975-19.021 14.988-25.651 6.901 6.534 15.012 16.365 15.012 25.651 0 9.217-7.968 19.011-14.99 25.65z"/><path d="m271 90.686v-10.686c0-8.284-6.716-15-15-15s-15 6.716-15 15v10.686c-84.529 7.607-151 78.838-151 165.314 0 26.522 6.443 52.924 18.633 76.353 11.78 22.642 28.929 42.595 49.592 57.703 6.687 4.889 16.072 3.433 20.962-3.255s3.433-16.072-3.255-20.962c-35.023-25.608-55.932-66.669-55.932-109.839 0-69.921 53.043-127.678 121-135.169v9.169c0 8.284 6.716 15 15 15s15-6.716 15-15v-9.169c67.957 7.491 121 65.248 121 135.169 0 43.17-20.909 84.231-55.932 109.839-6.688 4.89-8.145 14.274-3.255 20.962 2.938 4.018 7.497 6.147 12.12 6.147 3.072 0 6.172-.94 8.842-2.893 20.663-15.108 37.812-35.062 49.592-57.703 12.19-23.428 18.633-49.83 18.633-76.352 0-86.476-66.471-157.707-151-165.314z"/><path d="m278.5 181c-22.272 0-42.01 12.025-52.375 30.648-2.505-.43-5.055-.648-7.625-.648-24.814 0-45 20.186-45 45s20.186 45 45 45h60c33.084 0 60-26.916 60-60s-26.916-60-60-60zm0 90h-60c-8.271 0-15-6.728-15-15 0-8.271 6.729-15 15-15 2.875 0 5.668.818 8.079 2.368 4.101 2.635 9.227 3.112 13.747 1.28 4.518-1.833 7.862-5.747 8.97-10.495 3.178-13.632 15.187-23.153 29.204-23.153 16.542 0 30 13.458 30 30s-13.458 30-30 30z"/></g></svg>