<?xml version="1.0" encoding="iso-8859-1"?>
<!-- Generator: Adobe Illustrator 19.0.0, SVG Export Plug-In . SVG Version: 6.00 Build 0)  -->
<svg version="1.1" id="Capa_1" xmlns="http://www.w3.org/2000/svg" xmlns:xlink="http://www.w3.org/1999/xlink" x="0px" y="0px"
	 viewBox="0 0 512 512" style="enable-background:new 0 0 512 512;" xml:space="preserve">
<g>
	<g>
		<path d="M511.969,255.637c-0.094-68.24-26.709-132.383-74.972-180.647c-48.35-48.35-112.634-74.977-181.01-74.977
			c-68.377,0-132.66,26.627-181.01,74.977C26.627,123.34,0,187.624,0,256c0,68.376,26.627,132.661,74.977,181.01
			c48.298,48.298,112.497,74.917,180.792,74.974c0.018,0,0.035,0.003,0.053,0.003c0.011,0,0.021-0.002,0.032-0.002
			c0.045,0,0.089,0.002,0.133,0.002c68.376,0,132.66-26.627,181.01-74.977c48.11-48.11,74.702-111.999,74.964-179.997
			c0.013-0.256,0.039-0.508,0.039-0.766C512,256.041,511.977,255.841,511.969,255.637z M466.597,271.252h14.847
			c-3.618,54.619-26.604,105.471-65.669,144.536c-39.163,39.164-90.173,62.167-144.947,65.694v-14.898
			c0-8.287-6.719-15.006-15.006-15.006c-8.287,0-15.006,6.719-15.006,15.006v14.878c-54.649-3.599-105.532-26.589-144.617-65.674
			c-39.104-39.104-62.098-90.019-65.679-144.7h14.91c8.287,0,15.006-6.719,15.006-15.006c0-8.287-6.719-15.006-15.006-15.006H30.51
			c3.546-54.743,26.545-105.72,65.689-144.863c39.124-39.124,90.071-62.121,144.782-65.684v14.888
			c0,8.287,6.719,15.006,15.006,15.006s15.006-6.719,15.006-15.006V30.528c54.712,3.563,105.658,26.56,144.782,65.684
			c39.183,39.182,62.189,90.223,65.699,145.028h-14.877c-8.287,0-15.006,6.719-15.006,15.006
			C451.591,264.534,458.31,271.252,466.597,271.252z"/>
	</g>
</g>
<g>
	<g>
		<path d="M418.625,242.321c-8.287,0-15.006,6.719-15.006,15.006c0,81.39-66.215,147.606-147.606,147.606
			s-147.606-66.215-147.606-147.606s66.215-147.606,147.606-147.606c8.287,0,15.006-6.719,15.006-15.006
			c0-8.287-6.719-15.006-15.006-15.006c-97.939,0-177.619,79.679-177.619,177.619s79.679,177.619,177.619,177.619
			s177.619-79.679,177.619-177.619C433.632,249.04,426.913,242.321,418.625,242.321z"/>
	</g>
</g>
<g>
	<g>
		<path d="M255.822,211.481c-3.576,0-7.052,0.433-10.387,1.23l-37.806-59.481c-4.445-6.994-13.72-9.062-20.715-4.615
			c-6.994,4.446-9.061,13.72-4.615,20.715l37.977,59.749c-5.777,7.54-9.221,16.958-9.221,27.169
			c0,24.684,20.082,44.767,44.767,44.767c24.684,0,44.766-20.082,44.766-44.767S280.506,211.481,255.822,211.481z M255.821,271.001
			c-8.135,0-14.754-6.619-14.754-14.754c0-8.135,6.619-14.754,14.754-14.754c8.136,0,14.754,6.619,14.754,14.754
			C270.575,264.382,263.956,271.001,255.821,271.001z"/>
	</g>
</g>
<g>
</g>
<g>
</g>
<g>
</g>
<g>
</g>
<g>
</g>
<g>
</g>
<g>
</g>
<g>
</g>
<g>
</g>
<g>
</g>
<g>
</g>
<g>
</g>
<g>
</g>
<g>
</g>
<g>
</g>
</svg>
