<?xml version="1.0" encoding="iso-8859-1"?>
<!-- Generator: Adobe Illustrator 19.0.0, SVG Export Plug-In . SVG Version: 6.00 Build 0)  -->
<svg version="1.1" id="Capa_1" xmlns="http://www.w3.org/2000/svg" xmlns:xlink="http://www.w3.org/1999/xlink" x="0px" y="0px"
	 viewBox="0 0 512 512" style="enable-background:new 0 0 512 512;" xml:space="preserve">
<g>
	<g>
		<g>
			<path d="M507.2,27.36c-4.664-9.675-12.439-17.506-22.08-22.24C478.564,1.821,471.339,0.07,464,0H48C21.49,0,0,21.49,0,48v416
				c0.042,7.152,1.682,14.203,4.8,20.64c4.669,9.445,12.315,17.091,21.76,21.76c6.612,3.513,13.954,5.431,21.44,5.6h416
				c26.51,0,48-21.49,48-48V48C511.958,40.848,510.318,33.797,507.2,27.36z M32,457.44V48c0-8.837,7.163-16,16-16h409.44L32,457.44z
				 M480,464c0,8.837-7.163,16-16,16H54.56L480,54.56V464z"/>
			<polygon points="160,128 160,80 128,80 128,128 80,128 80,160 128,160 128,208 160,208 160,160 208,160 208,128 			"/>
			<rect x="304" y="352" width="128" height="32"/>
		</g>
	</g>
</g>
<g>
</g>
<g>
</g>
<g>
</g>
<g>
</g>
<g>
</g>
<g>
</g>
<g>
</g>
<g>
</g>
<g>
</g>
<g>
</g>
<g>
</g>
<g>
</g>
<g>
</g>
<g>
</g>
<g>
</g>
</svg>
